<svg xmlns="http://www.w3.org/2000/svg">
    <symbol viewBox="0 0 100 120" id="icon-lightbulbs">
      <path
        fill-rule="evenodd"
        clip-rule="evenodd"
        d="M104.362,173.805H98.31l-3.651-4.758h13.21L104.362,173.805   L104.362,173.805z M141.172,149.869H128.89c-0.038,0-5.29-4.255-5.811-4.655l-0.078-7.364c-0.006-0.556,0.457-1.015,1.039-1.07   c-0.084-1.21-0.892-2.808-2.034-4.658c3.469-5.127,8.33-11.723,9.768-17.609c1.855-7.596-0.08-13.535-4.104-17.818   c2.454-0.59,5.021-0.87,7.538-0.846c12.077,0.117,24.486,7.142,21.082,21.073c-1.831,7.499-10.552,16.424-10.852,19.854   c0.708,0,1.212,0.252,1.212,1.075v7.863L141.172,149.869L141.172,149.869z M137.414,164.74h-4.881l-2.945-3.838h10.654   L137.414,164.74L137.414,164.74z M129.035,159.69v-5.607c0-0.013,0-0.026,0.002-0.039h-0.685c-0.317,0-0.578-0.242-0.578-0.537   v-1.84c0-0.295,0.26-0.537,0.578-0.537h13.127c0.317,0,0.577,0.242,0.577,0.537v1.84c0,0.295-0.259,0.537-0.577,0.537h-0.685   c0,0.013,0.002,0.026,0.002,0.039v5.607H129.035L129.035,159.69z M93.973,167.544v-6.952c0-0.017,0-0.032,0.001-0.05h-0.848   c-0.393,0-0.716-0.299-0.716-0.665v-2.28c0-0.368,0.323-0.667,0.716-0.667h16.277c0.394,0,0.716,0.299,0.716,0.667v2.28   c0,0.366-0.322,0.665-0.716,0.665h-0.849c0.002,0.018,0.002,0.033,0.002,0.05v6.952H93.973L93.973,167.544z M109.022,155.366   H93.793c-0.047,0-6.561-5.276-7.205-5.773l-0.097-9.131c-0.008-0.688,0.567-1.259,1.288-1.326   c-0.355-5.094-11.039-15.709-13.17-25.42c-3.784-17.235,12.304-25.477,27.02-25.334c14.975,0.146,30.361,8.855,26.14,26.13   c-2.271,9.298-13.084,20.365-13.457,24.617c0.879,0,1.504,0.313,1.504,1.333v9.75L109.022,155.366L109.022,155.366z    M93.617,139.129h14.856c0.229-7.408,11.222-16.15,13.626-25.988c3.235-13.245-9.544-18.822-20.516-18.93   c-10.702-0.103-24.148,5.11-21.259,18.271C82.548,122.605,93.347,130.915,93.617,139.129L93.617,139.129z"
      />
    </symbol>
    <symbol viewBox="0 0 100 120" id="icon-oilfield">
      <path
        fill-rule="evenodd"
        clip-rule="evenodd"
        d="M262.263,105.871h-6.731l6.731,5.159V105.871L262.263,105.871z    M266.316,67.554c-0.255,2.017-0.84,3.194-1.943,4.237c-1.47-9.455-6.875-8.667-5.212-18.134   c-6.904,12.198-5.967,21.53,2.874,26.545c-17.679-3.28-13.082-18.756-1.033-32.272c-0.288,6.319,1.227,10.642,3.616,13.933   c1.451-1.164,2.149-3.13,1.943-6.637c4.399,8.419,9.731,20.464-2.158,24.975C268.286,76.814,268.689,72.762,266.316,67.554   L266.316,67.554z M236.242,163.771v7.114h54.244v-7.114H236.242L236.242,163.771z M243.736,160.284h39.253l-11.618-75.086h2.225   v-2.268h-2.267v-1.339h-15.851v1.339h-2.267l0,0v2.268h2.225L243.736,160.284L243.736,160.284z M279.626,153.169h-9.959   l-3.962-2.014l12.544-6.776L279.626,153.169L279.626,153.169z M257.484,153.169h-10.279l1.327-8.513l12.575,6.588L257.484,153.169   L257.484,153.169z M270.706,105.871h-6.161v5.037L270.706,105.871L270.706,105.871z M264.545,103.605h6.256l-6.256-6.835V103.605   L264.545,103.605z M255.722,103.605h6.542v-6.782L255.722,103.605L255.722,103.605z M262.263,124.856h-8.219l8.219,5.083V124.856   L262.263,124.856z M273.034,124.856h-8.489v5.341L273.034,124.856L273.034,124.856z M264.545,122.59h8.724l-8.724-6.774V122.59   L264.545,122.59z M253.599,122.59h8.665v-6.816L253.599,122.59L253.599,122.59z M262.263,143.279H251.05l11.214,6.044   L262.263,143.279L262.263,143.279z M275.68,143.279h-11.135v6.053L275.68,143.279L275.68,143.279z M264.545,141.013h10.434   l-10.434-6.765V141.013L264.545,141.013z M251.506,141.013h10.757v-6.485L251.506,141.013L251.506,141.013z M251.474,125.772   l9.9,6.419l-12.084,7.604L251.474,125.772L251.474,125.772z M254.268,107.833l7.2,5.592l-9.25,7.564L254.268,107.833   L254.268,107.833z M257.235,88.786l4.721,5.156l-6.635,7.133L257.235,88.786L257.235,88.786z M262.263,87.464v4.033l-3.743-4.033   H262.263L262.263,87.464z M267.982,87.464l-3.437,3.694v-3.694H267.982L267.982,87.464z M271.532,101.484l-6.75-7.272l4.827-5.007   L271.532,101.484L271.532,101.484z M274.495,120.403l-9.177-7.031l7.19-5.657L274.495,120.403L274.495,120.403z M277.46,139.34   l-11.442-7.077l9.442-5.691L277.46,139.34L277.46,139.34z"
      />
    </symbol>
    <symbol viewBox="0 0 100 120" id="icon-flame">
      <path
        d="M368.42,165.732h57.129c4.456,0,4.455,8.073,0,8.073H368.42C363.964,173.806,363.963,165.732,368.42,165.732   L368.42,165.732z M393.811,163.078c-39.483-13.604-32.577-34.213-15.321-52.947c8.013-8.7,19.107-14.252,13.857-32.889   c10.96,20.986-0.008,28.632-7.59,36.838C370.14,129.898,375.365,151.854,393.811,163.078L393.811,163.078z M400.511,162.983   c16.01-9.176,14.508-19.469,12.189-25.074c-4.19-10.132-21.855-10.307-14.683-36.142c-0.597,22.862,21.434,22.479,26.071,32.573   C427.384,141.509,425.706,156.596,400.511,162.983L400.511,162.983z M397.469,158.993c-14.293-11.111-23.07-25.336-5.763-46.756   C382.667,141.874,420.75,130.294,397.469,158.993L397.469,158.993z"
      />
    </symbol>
    <symbol viewBox="0 0 100 120" id="icon-power">
      <path
        fill-rule="evenodd"
        clip-rule="evenodd"
        d="M539.25,105.458h-10.379l10.379,5.5V105.458L539.25,105.458z    M511.859,166.262v7.544c18.021,0,39.49,0,57.514,0v-7.544H511.859L511.859,166.262z M519.807,162.564h41.619l-6.113-39.509   l12.527-0.004v8.998h2.609l-0.002-10.104l-15.264-11.99l-0.012-6.664l12.668-0.003v8.998h2.609l-0.002-10.104l-15.264-11.992   l-0.012-6.829l-29.197,0.047l0.004,6.838l-15.193,11.937l-0.002,10.104h2.609v-8.998l12.582,0.003l0.004,6.718l-15.193,11.937   l-0.002,10.104h2.609v-8.998l12.576,0.004L519.807,162.564L519.807,162.564z M550.66,122.917l-8.719,0.019v-6.879L550.66,122.917   L550.66,122.917z M539.25,122.941l-8.775,0.02l8.775-6.904V122.941L539.25,122.941z M557.859,155.021h-10.422l-4.34-2.136   l13.301-7.184L557.859,155.021L557.859,155.021z M533.922,155.021h-10.438l1.406-9.256l13.563,7.123L533.922,155.021   L533.922,155.021z M539.449,125.001h-8.713l8.713,5.39V125.001L539.449,125.001z M550.869,125.001h-9v5.662L550.869,125.001   L550.869,125.001z M539.449,144.533h-11.752l11.752,6.249V144.533L539.449,144.533z M553.674,144.533h-11.805v6.35L553.674,144.533   L553.674,144.533z M541.869,142.132h11.063l-11.063-7.174V142.132L541.869,142.132z M528.045,142.132h11.404v-6.877   L528.045,142.132L528.045,142.132z M528.01,125.972l10.496,6.807l-12.813,8.062L528.01,125.972L528.01,125.972z M555.563,140.356   l-12.131-7.503l10.012-6.035L555.563,140.356L555.563,140.356z M539.25,85.695h-10.379l10.379,5.5V85.695L539.25,85.695z    M530.518,103.165l8.732-6.871v6.857L530.518,103.165L530.518,103.165z M541.941,103.146v-6.853l8.693,6.84L541.941,103.146   L541.941,103.146z M564.721,100.826l-9.482-0.001v-7.447L564.721,100.826L564.721,100.826z M528.467,101.749l9.93-8.12   l-9.951-5.545L528.467,101.749L528.467,101.749z M516.51,100.826l9.475-0.001l-0.004-7.438L516.51,100.826L516.51,100.826z    M541.941,85.695h10.379l-10.379,5.5V85.695L541.941,85.695z M552.746,88.084l-9.949,5.545l9.943,8.133L552.746,88.084   L552.746,88.084z M564.721,120.589h-9.482v-7.448L564.721,120.589L564.721,120.589z M528.467,121.512l9.93-8.12l-9.951-5.545   L528.467,121.512L528.467,121.512z M516.51,120.589l9.475-0.001l-0.004-7.438L516.51,120.589L516.51,120.589z M541.941,105.458   h10.379l-10.379,5.5V105.458L541.941,105.458z M552.746,107.847l-9.949,5.545l9.943,8.133L552.746,107.847L552.746,107.847z"
      />
    </symbol>
    <symbol viewBox="0 0 100 120" id="icon-ions">
      <path
        fill-rule="evenodd"
        clip-rule="evenodd"
        d="M717.646,135.111c1.52,4.348-3.75,8.138-7.43,4.515   c-2.135,0.851-4.617,1.643-6.844,2.224c11.949,19.071,3.879,27.771-15.074,16.173c-5.182,21.21-16.98,20.894-21.918-0.055   c-18.521,11.125-26.305,3.272-15.586-15.06c-21.291-4.747-19.385-16.587,0.441-21.813c-0.152-0.255-0.305-0.51-0.457-0.765   c0.008-0.003,0.018-0.006,0.025-0.008c-3.982,0.333-6.297-4.461-3.586-7.454c-5.795-17.474,9.219-13.599,19.379-7.443   c1.367-7.318,5.578-18.844,14.355-14.945c4.203-1.673,8.035,3.532,4.971,7.067c1.047,2.506,1.83,4.991,2.479,7.629   c17.488-10.656,27.053-3.944,15.861,14.783C710.682,121.485,725.078,126.771,717.646,135.111L717.646,135.111z M669.563,107.332   c2.689,1.838,5.33,3.867,7.889,5.874c3.033-2.505,6.082-4.907,9.391-7.049c-0.65-2.543-1.436-5.045-2.578-7.413   c-3.396,1.406-6.969-1.708-6-5.271C673.289,92.739,670.258,103.037,669.563,107.332L669.563,107.332z M715.385,132.646   c4.244-4.841-9.611-8.92-13.004-9.685c-1.951,2.967-4.002,5.873-6.189,8.671c2.195,2.806,4.25,5.718,6.207,8.694   c2.359-0.631,4.602-1.383,6.824-2.402C707.914,133.94,712.043,130.83,715.385,132.646L715.385,132.646z M653.852,118.949   c0.266,0.448,0.529,0.895,0.803,1.337c3.256-0.688,6.537-1.134,9.838-1.529c0.396-3.854,0.844-7.777,1.684-11.563   c-6.529-3.886-19.656-8.614-15.836,4.247c2.832-0.088,5.059,2.489,4.512,5.303C654.619,117.932,653.846,118.953,653.852,118.949   L653.852,118.949z M687.291,131.97c0,5.045-4.105,9.126-9.145,9.126c-5.041,0-9.146-4.081-9.146-9.126   c0-5.046,4.105-9.126,9.146-9.126C683.186,122.844,687.291,126.925,687.291,131.97L687.291,131.97z M669.902,155.698   c-0.221,0.15-0.439,0.302-0.66,0.45c3.727,16.663,13.168,18.954,17.689,1.014c-3.314-2.139-6.424-4.584-9.465-7.094   c-0.143,0.113-0.414,0.322-0.588,0.459C678.844,154.856,673.463,158.806,669.902,155.698L669.902,155.698z M668.408,151.825   c0.455-3.786,5.035-5.159,7.574-2.599c0.082-0.063,0.164-0.126,0.248-0.19c-1.371-1.153-2.723-2.329-4.051-3.53   c-0.846-0.018-1.688-0.046-2.525-0.085c-0.74-0.034-1.473-0.076-2.197-0.126C667.717,147.479,668.043,149.656,668.408,151.825   L668.408,151.825z M664.445,145.041c-3.4-0.334-6.816-0.819-10.176-1.435c-8.916,14.856-4.186,21.92,11.715,12.579   C665.219,152.488,664.791,148.8,664.445,145.041L664.445,145.041z M667.652,118.41c1.398-0.141,2.799-0.261,4.203-0.359   c1.432-1.304,2.893-2.578,4.375-3.825c-2.314-1.771-4.662-3.493-7.07-5.133C668.508,112.158,668.047,115.302,667.652,118.41   L667.652,118.41z M667.309,121.372c-0.039,0.381-0.078,0.761-0.113,1.142c0.424-0.427,0.85-0.851,1.279-1.271   C668.086,121.283,667.697,121.326,667.309,121.372L667.309,121.372z M666.854,127.128c-0.158,2.965-0.195,5.93-0.102,8.896   c1.297,1.429,2.621,2.809,3.977,4.147c1.34,1.324,2.717,2.609,4.139,3.867c2.664-0.025,5.324-0.167,7.977-0.41   c2.469-2.175,4.828-4.464,7.063-6.883c0.148-3.461,0.094-6.915-0.131-10.372c-1.803-1.944-3.695-3.812-5.656-5.597   c-3.689-0.161-7.375-0.14-11.063,0.084C670.9,122.86,668.832,124.954,666.854,127.128L666.854,127.128z M666.994,140.546   c0.082,1.085,0.18,2.169,0.295,3.251c1.074,0.078,2.15,0.138,3.229,0.179C669.32,142.855,668.146,141.713,666.994,140.546   L666.994,140.546z M687.686,153.85c0.645-3.125,1.186-6.271,1.576-9.439c-1.92,0.263-3.844,0.488-5.775,0.667   c-1.197,1.055-2.414,2.085-3.65,3.094C682.371,150.154,685,152.077,687.686,153.85L687.686,153.85z M689.445,142.83   c0.135-1.256,0.246-2.515,0.332-3.775c-1.418,1.482-2.885,2.919-4.393,4.312C686.742,143.211,688.094,143.03,689.445,142.83   L689.445,142.83z M689.6,124.028c-0.084-0.972-0.18-1.94-0.285-2.91c-0.955-0.083-1.912-0.154-2.869-0.216   C687.52,121.921,688.572,122.962,689.6,124.028L689.6,124.028z M688.938,118.006c-0.373-2.83-0.789-5.732-1.344-8.533   c-2.643,1.752-5.275,3.675-7.773,5.629c1.066,0.869,2.121,1.754,3.158,2.657C684.967,117.795,686.953,117.879,688.938,118.006   L688.938,118.006z M689.127,108.485c0.611,3.175,1.014,6.42,1.396,9.63c4.066,0.305,8.15,0.659,12.15,1.49   C711.896,103.8,702.822,99.929,689.127,108.485L689.127,108.485z M690.869,121.263c0.15,1.504,0.275,3.009,0.375,4.518   c1.381,1.509,2.713,3.063,3.998,4.656c1.963-2.528,3.799-5.138,5.559-7.812C697.555,121.982,694.15,121.588,690.869,121.263   L690.869,121.263z M691.373,128.142c0.102,2.297,0.131,4.597,0.074,6.895c0.977-1.112,1.928-2.249,2.854-3.405   C693.352,130.446,692.377,129.281,691.373,128.142L691.373,128.142z M691.361,137.356c-0.086,1.752-0.221,3.497-0.402,5.241   c3.289-0.52,6.664-1.105,9.893-1.881c-1.762-2.7-3.633-5.343-5.609-7.891C693.994,134.375,692.701,135.887,691.361,137.356   L691.361,137.356z M690.781,144.196c-0.422,3.537-1.025,7.036-1.742,10.525c15.236,9.555,22.701,3.536,12.777-12.487   C698.234,143.079,694.436,143.663,690.781,144.196L690.781,144.196z M664.311,143.539c-0.174-2.072-0.309-4.148-0.396-6.227   c-0.51-0.556-1.033-1.139-1.572-1.747c-0.432-0.486-0.869-0.989-1.316-1.511c-2.061,2.637-4.105,5.351-5.902,8.175   C658.162,142.78,661.236,143.227,664.311,143.539L664.311,143.539z M663.803,132.642c-0.004-0.676-0.002-1.352,0.004-2.026   c-0.281,0.338-0.564,0.676-0.844,1.016C663.242,131.969,663.521,132.306,663.803,132.642L663.803,132.642z M663.945,125.916   c0.068-1.381,0.158-2.761,0.27-4.14c-2.568,0.373-5.141,0.837-7.684,1.359c1.449,2.06,2.943,4.088,4.494,6.072   C661.98,128.095,662.953,126.996,663.945,125.916L663.945,125.916z M678.596,147.187c0.781-0.624,1.555-1.258,2.32-1.901   c-1.455,0.101-2.912,0.171-4.369,0.208C677.223,146.066,677.906,146.631,678.596,147.187L678.596,147.187z M658.992,131.631   c-2.031-2.477-4.105-5.082-5.926-7.708c-15.662,3.956-19.498,13.376-1.43,17.592C653.785,138.07,656.43,134.756,658.992,131.631   L658.992,131.631z M680.631,117.737c-0.672-0.563-1.352-1.115-2.035-1.662c-0.707,0.568-1.404,1.146-2.096,1.732   C677.877,117.762,679.254,117.738,680.631,117.737L680.631,117.737z"
      />
    </symbol>
    <symbol viewBox="0 0 100 120" id="icon-liquid">
      <path
        fill-rule="evenodd"
        clip-rule="evenodd"
        d="M669.848,546.951c-9.492,0-17.188-7.695-17.188-17.188   c0-9.492,7.695-17.188,17.188-17.188c9.494,0,17.189,7.696,17.189,17.188C687.037,539.256,679.342,546.951,669.848,546.951   L669.848,546.951z M675.723,498.511h11.371C686.689,493.02,676.355,492.819,675.723,498.511L675.723,498.511z M698.795,516.299   v25.235C708.066,538.266,710.016,523.412,698.795,516.299L698.795,516.299z M698.795,498.511v8.42   c25.26,17.03,14.025,39.104,0,43.743v9.521H641.49c0-20.561,0-41.124,0-61.684h3.244v-2.646h-3.217v-5.217h15.59v5.217h-3.479   v2.646h15.051c1.912-12.989,23.557-12.972,25.406,0H698.795L698.795,498.511z M664.166,519.953   c-3.512,2.027-5.645,5.762-5.648,9.827c2.574,0,5.146,0,7.721,0c0.146-1.246,0.607-2.258,1.744-3.143L664.166,519.953   L664.166,519.953z M675.381,519.84c3.623,1.994,5.846,5.793,5.85,9.94h-7.854c0.168-1.144-0.625-2.742-1.879-3.143L675.381,519.84   L675.381,519.84z M660.852,538.811c-4.953-4.955-4.953-13.089,0-18.044c4.955-4.955,13.09-4.955,18.045,0   c4.953,4.955,4.953,13.089,0,18.044C673.941,543.765,665.807,543.765,660.852,538.811L660.852,538.811z M669.875,532.09   c1.27,0,2.301-1.03,2.301-2.302c0-1.271-1.031-2.301-2.301-2.301c-1.271,0-2.303,1.03-2.303,2.301   C667.572,531.06,668.604,532.09,669.875,532.09L669.875,532.09z M659.426,540.236c5.738,5.738,15.158,5.738,20.896,0   s5.738-15.157,0-20.896s-15.158-5.738-20.896,0S653.688,534.498,659.426,540.236L659.426,540.236z M675.543,539.646   c-3.494,1.999-7.852,1.998-11.344-0.004c1.262-2.284,2.523-4.567,3.783-6.852c0.736,0.715,2.795,0.736,3.516,0L675.543,539.646   L675.543,539.646z"
      />
    </symbol>
    <symbol viewBox="0 0 100 120" id="icon-battery">
      <path
        d="M298.725,516.25h-70.723c0,16.452,0,32.908,0,49.359h70.723C298.725,549.158,298.725,532.702,298.725,516.25   L298.725,516.25z M281.005,509.949v-3.386h8.009v3.386h13.394c0,0.959,0,3.43,0,4.39h-78.089c0-0.96,0-3.431,0-4.39h14.657v-3.386   h8.01v3.386H281.005L281.005,509.949z M236.322,532.578v-4.225h12.001v4.225H236.322L236.322,532.578z M280.757,538.171v-5.731   h-5.795v-3.947h5.795v-5.732h3.853v5.732h5.794v3.947h-5.794v5.731H280.757L280.757,538.171z"
      />
    </symbol>
    <symbol viewBox="0 0 100 120" id="icon-charging-left">
      <path
        d="M706.744,702.555c0,1.792,0,3.584,0,5.377h-59.359c0-1.793,0-3.585,0-5.377H706.744L706.744,702.555z    M668.439,657.213c0.994-4.086,5.023-6.623,7.836-6.262l7.109-12.494l-4,12.997c2.779,0.848,4.469,2.915,5.16,5.759h6.494v-21.94   h-28.758v21.94H668.439L668.439,657.213z M698.979,630.069v38.251h7.924c0,3.547,0,7.095,0,10.642   c0.109,6.999,2.588,10.145,5.145,12.29c5.641,6.035,5.6-4.899,4.717-8.822c-1.656-7.368-4.422-14.918-5.719-22.562h-5.807   c0-4.097,0-8.191,0-12.287h5.012c0.191-3.108-0.43-5.805-2.104-6.558c-1.359-0.74-2.129-1.17-3.283-1.808l1.162-2.334   c1.416,0.759,2.031,1.118,3.621,1.902c3.428,2.012,3.311,5.624,3.41,8.797h3.236c0,4.096,0,8.19,0,12.287h-2.877   c1.311,7.458,4.199,15.321,5.801,22.443c1.582,7.042-0.205,18.209-8.846,10.961c-3.137-2.632-5.971-7.797-6.041-14.311h-5.352   v20.753h-43.953c0-23.214,0-46.432,0-69.646C669.652,630.069,684.357,630.069,698.979,630.069L698.979,630.069z"
      />
    </symbol>
    <symbol viewBox="0 0 100 120" id="icon-charging-right">
      <path
        fill-rule="evenodd"
        clip-rule="evenodd"
        d="M245.629,223.379c-5.017,1.771-7.002,5.472-7.434,10.793   l-1.363-0.001c-0.561,0-0.65,0.217-0.64,0.851v0.294c-2.01,0.057-1.87,2.277-0.322,2.276c0.233,0.414,0.42,0.968,0.833,1.183   c-0.287,2.023-0.313,4.317,0.156,6.139h-0.99v2.726l0.275,0.001c-0.244,9.591-2.485,13.714-6.165,22.752   c-2.031,5.497-6.401,14.801-4.233,20.475c2.517,6.585,10.211,8.141,14.544,2.031c3.598-5.069,3.892-12.969,3.878-18.602   l-0.043-18.214h0.533v-2.079h-0.347c0-0.387-0.111-1.168,0.44-1.166h0.878v1.525h4.681l3.445,31.772h-8.265v10.983h40.331v-10.983   h-9.412l3.209-31.772h4.818v-38.355h-38.807V223.379L245.629,223.379z M259.435,221.816l7.895,15.416h4.371v2.679h10.47v-21.83   H247.88v21.83h11.021v-2.679h4.237L259.435,221.816L259.435,221.816z M280.566,244.785v6.225h-31.357v-6.225H280.566   L280.566,244.785z M245.629,250.433h-2.322c-0.827,0.16-1.293,0.474-1.443,1.248v2.321h-0.578v2.078h0.855l-0.011,18.248   c-0.293,5.675-0.154,12.758-3.812,17.347c-3.34,4.19-7.473,3.214-10.02-1.08c-2.223-3.752,2.239-15.104,4.108-19.765   c3.279-8.176,6.004-14.254,6.004-23.193h0.81v-1.081l2.136-0.751v1.323h4.274L245.629,250.433L245.629,250.433z M245.629,237.922   l-1.94,3.31l0-2.469c0.252-0.264,0.34-0.482,0.346-0.781v-3.036c0-0.429-0.274-0.775-0.725-0.775h-1.552   c0.191-2.868,0.632-6.773,3.872-7.762L245.629,237.922L245.629,237.922z M238.769,244.911h0.451l2.633-0.969h-0.012v-5.14h-2.939   C239.261,241.141,239.277,242.541,238.769,244.911L238.769,244.911z"
      />
    </symbol>
    <symbol viewBox="0 0 100 120" id="icon-warning">
      <path
        fill-rule="evenodd"
        clip-rule="evenodd"
        d="M576.93,292.462c-12.084-20.928-24.166-41.854-36.248-62.782   c-12.082,20.928-24.164,41.854-36.246,62.782C528.6,292.462,552.764,292.462,576.93,292.462L576.93,292.462z M573.998,297.069   c-22.459,0-44.918,0-67.379,0c-7.996,0-10.983,1.344-4.404-10.004c16.84-29.049,27.068-47.153,32.816-57.976   c4.559-8.584,6.607-8.297,11.1-0.369c5.453,9.626,15.502,27.721,32.66,57.712C585.311,297.822,583.381,297.069,573.998,297.069   L573.998,297.069z M540.617,236.703l30.186,52.521H510.43L540.617,236.703L540.617,236.703z M547.438,257.594l-6.818,9.126   l6.777-0.006l-15.654,18.817l5.395-13.243l-5.459,0.005l7.205-14.699H547.438L547.438,257.594z"
      />
    </symbol>
    <symbol viewBox="0 0 100 120" id="icon-nuclear">
      <path
        d="M411.566,284.39l-10.519-17.827c-1.876,1.916-7.231,1.859-9.143,0c-3.28,5.939-6.561,11.879-9.841,17.818   C391.148,289.585,402.479,289.588,411.566,284.39L411.566,284.39z M369.652,285.927c-14.922-14.923-14.922-39.417,0-54.339   c14.923-14.923,39.417-14.923,54.339,0c14.923,14.922,14.923,39.416,0,54.339C409.07,300.849,384.576,300.849,369.652,285.927   L369.652,285.927z M396.823,264.741c-3.305,0-5.985-2.68-5.985-5.984c0-3.304,2.68-5.984,5.985-5.984   c3.305,0,5.984,2.681,5.984,5.984C402.807,262.062,400.127,264.741,396.823,264.741L396.823,264.741z M373.362,282.218   c12.884,12.885,34.036,12.885,46.922,0c12.885-12.885,12.885-34.036,0-46.922c-12.886-12.885-34.038-12.885-46.922,0   C360.477,248.182,360.477,269.333,373.362,282.218L373.362,282.218z M411.144,232.887l-10.097,17.677   c3.259,1.041,5.324,5.198,4.884,8.172h20.422C426.345,247.95,420.565,238.07,411.144,232.887L411.144,232.887z M381.977,233.183   l9.928,17.381c-2.956,2.303-4.157,4.933-4.539,8.172c-6.691,0-13.383,0-20.074,0C367.299,248.164,372.849,238.453,381.977,233.183   L381.977,233.183z"
      />
    </symbol>
    <symbol viewBox="0 0 100 120" id="icon-lighting">
      <path
        d="M396.822,693.58c16.089,0,28.967-12.878,28.967-28.967c0-10.465-5.449-19.569-13.686-24.657l5.571-7.46   c10.491,6.797,17.392,18.604,17.392,32.117c0,21.224-17.021,38.243-38.244,38.243c-4.575,0-8.953-0.791-13.009-2.246l6.458-7.764   C392.374,693.327,394.566,693.58,396.822,693.58L396.822,693.58z M421.257,621.295l-21.14,28.302l21.011-0.021l-48.542,58.356   l16.728-41.065l-16.928,0.014l22.345-45.585H421.257L421.257,621.295z M380.741,640.469c-7.788,5.173-12.886,14.022-12.886,24.145   c0,8.417,3.525,15.954,9.19,21.229l-3.683,9.041c-9.013-6.978-14.785-17.911-14.785-30.27c0-17.837,12.024-32.703,28.46-36.993   L380.741,640.469L380.741,640.469z"
      />
    </symbol>
    <symbol viewBox="0 0 100 120" id="icon-windmill">
      <path
        fill-rule="evenodd"
        clip-rule="evenodd"
        d="M262.316,373.054c0.512-2.29,8.923-2.357,18.786-0.151   c9.863,2.207,17.442,5.852,16.931,8.142c-0.513,2.289-8.923,2.356-18.786,0.15S261.805,375.343,262.316,373.054L262.316,373.054z    M233.61,432.368h49.266c2.717,0,4.94-2.224,4.94-4.94v-2.537c0-2.717-2.223-4.939-4.94-4.939h-24.592v-41.891   c-0.642,1.225-1.924,2.061-3.403,2.061c-0.181,0-0.359-0.013-0.533-0.037c-0.06,1.773-1.096,4.659-2.87,8.062v31.806H233.61   c-2.717,0-4.94,2.223-4.94,4.939v2.537C228.67,430.145,230.893,432.368,233.61,432.368L233.61,432.368z M254.881,375.18   c-2.121,0-3.839-1.718-3.839-3.839c0-2.12,1.719-3.839,3.839-3.839s3.84,1.719,3.84,3.839   C258.721,373.462,257.001,375.18,254.881,375.18L254.881,375.18z M251.485,364.449c-2.165,0.905-7.081-5.92-10.98-15.244   c-3.899-9.323-5.306-17.615-3.141-18.521c2.164-0.905,7.08,5.92,10.98,15.243C252.243,355.252,253.649,363.544,251.485,364.449   L251.485,364.449z M250.228,377.382c1.921,1.345-1.22,9.147-7.017,17.426c-5.796,8.278-12.054,13.899-13.976,12.554   s1.219-9.147,7.017-17.427C242.048,381.656,248.306,376.035,250.228,377.382L250.228,377.382z"
      />
    </symbol>
    <symbol viewBox="0 0 100 120" id="icon-co2">
      <path
        fill-rule="evenodd"
        clip-rule="evenodd"
        d="M243.514,699.776c-1.977,0.753-4.123,1.166-6.364,1.166   c-9.876,0-17.882-8.006-17.882-17.881c0-9.181,6.917-16.742,15.823-17.764l-0.001-0.118c0-11.925,9.667-21.591,21.591-21.591   c6.428,0,12.2,2.811,16.155,7.269c1.894-0.788,3.972-1.224,6.151-1.224c8.852,0,16.027,7.176,16.027,16.027   c0,0.159-0.003,0.317-0.008,0.475c7.294,2.899,12.452,10.021,12.452,18.349c0,10.899-8.836,19.735-19.736,19.735   c-4.654,0-8.932-1.61-12.305-4.306c-3.604,4.864-9.383,8.018-15.901,8.018C252.937,707.932,247.11,704.718,243.514,699.776   L243.514,699.776z M260.217,671.636l-5.143,1.287c-0.171-1.439-0.566-2.521-1.181-3.253c-1.614-1.897-4.271-1.21-5.506,0.813   c-1.638,2.682-1.531,10.678,0.019,13.368c1.247,2.165,3.948,2.931,5.595,0.849c0.635-0.795,1.08-2.163,1.339-4.11l5.145,1.232   c-0.534,3.324-1.556,5.836-3.067,7.533c-3.604,4.049-9.988,3.18-12.986-1.305c-3.487-5.213-3.487-16.214,0.006-21.419   c2.863-4.266,9.111-5.354,12.726-1.653C258.58,666.435,259.596,668.651,260.217,671.636L260.217,671.636z M291.348,694.146v2.081   h-7.88c0.084-0.792,0.341-1.54,0.767-2.247c1.131-1.877,3.281-3.117,4.388-4.74c0.472-0.709,0.736-1.861,0.061-2.536   c-0.553-0.56-1.68-0.54-2.231,0.021c-0.275,0.281-0.434,0.751-0.478,1.409l-2.244-0.225c0.133-1.239,0.551-2.13,1.256-2.67   c1.432-1.093,4.032-1.13,5.37,0.131c1.074,1.016,1.229,2.518,0.707,3.848c-0.917,2.326-3.119,3.09-4.188,4.928H291.348   L291.348,694.146z M264.25,669.849c0.857-2.296,2.07-4.039,3.639-5.245c4.245-3.266,9.594-2.012,12.599,2.288   c3.882,5.57,3.843,15.288-0.025,20.855c-3.063,4.397-8.059,5.51-12.466,2.422c-1.638-1.152-2.889-2.842-3.747-5.075   C262.506,680.566,262.547,674.396,264.25,669.849L264.25,669.849z M269.731,683.69c1.858,2.936,5.016,2.96,6.865,0   c1.871-2.979,1.876-9.704,0-12.689c-1.849-2.96-5.006-2.936-6.865,0C267.849,673.977,267.85,680.715,269.731,683.69L269.731,683.69   z"
      />
    </symbol>
    <symbol viewBox="0 0 100 120" id="icon-plug">
      <path
        fill-rule="evenodd"
        clip-rule="evenodd"
        d="M147.526,297.118h-64.14c-3.609,0-6.563-2.952-6.563-6.562v-45.91   c0-3.609,2.953-6.562,6.563-6.562h64.14c3.609,0,6.562,2.952,6.562,6.562v45.91C154.088,294.166,151.135,297.118,147.526,297.118   L147.526,297.118z M120.367,283.012h-9.822l2.673-5.21h4.476L120.367,283.012L120.367,283.012z M106.526,272.245h-5.425v-15.192   h5.425V272.245L106.526,272.245z M129.81,272.245h-5.425v-15.192h5.425V272.245L129.81,272.245z M130.877,288.081h-30.843   c-6.261,0-11.382-5.122-11.382-11.383v-18.194c0-6.26,5.122-11.382,11.382-11.382h30.843c6.26,0,11.382,5.122,11.382,11.382v18.194   C142.26,282.959,137.138,288.081,130.877,288.081L130.877,288.081z"
      />
    </symbol>
    <symbol viewBox="0 0 100 120" id="icon-powerstation">
      <path
        fill-rule="evenodd"
        clip-rule="evenodd"
        d="M126.412,521.215c-0.066-2.075,3.717-4.636,5.892-1.66   c-0.198-3.168,4.49-5.823,6.83-1.33c-0.684-5.483,11.195-7.946,11.182,2.343c-0.013,9.615-11.237,7.797-11.255,1.993   c-2.219,4.524-6.404,1.449-6.394-0.615c-0.7,2.54-4.457,2.831-5.691,0.429c0.215,2.063-3.079,1.939-3.073,1.804   C123.723,522.282,124.633,520.2,126.412,521.215L126.412,521.215z M141.365,565.609h-8.24c0-15.455-9.287-20.893-13.773-39.75   h11.243C131.154,550.123,141.365,552.358,141.365,565.609L141.365,565.609z M131.863,565.609c-7.831,0-47.879,0-55.709,0   c0-19.818,16.78-25.056,16.109-59.45c7.83,0,15.661,0,23.492,0C116.594,542.447,131.863,545.791,131.863,565.609L131.863,565.609z    M148.042,565.609h-5.23c0-9.81-5.894-13.26-8.741-25.229h7.135C141.561,555.781,148.042,557.2,148.042,565.609L148.042,565.609z    M97.745,536.084l4.14,7.249c-1.232,0.96-1.733,2.056-1.893,3.407c-2.79,0-5.58,0-8.37,0   C91.625,542.331,93.939,538.282,97.745,536.084L97.745,536.084z M109.908,535.962l-4.211,7.371c1.359,0.434,2.22,2.167,2.037,3.407   h8.516C116.246,542.242,113.835,538.123,109.908,535.962L109.908,535.962z M103.936,549.244c-1.378,0-2.496-1.117-2.496-2.495   s1.118-2.496,2.496-2.496s2.496,1.118,2.496,2.496S105.313,549.244,103.936,549.244L103.936,549.244z M110.083,557.438   l-4.387-7.434c-0.782,0.798-3.015,0.775-3.812,0c-1.368,2.477-2.735,4.952-4.103,7.43   C101.57,559.604,106.294,559.605,110.083,557.438L110.083,557.438z M107.301,497.876c-0.131-4.092,7.331-9.141,11.619-3.272   c-0.39-6.248,8.854-11.484,13.469-2.624c-1.35-10.813,22.076-15.67,22.05,4.62c-0.025,18.963-22.16,15.376-22.195,3.931   c-4.375,8.923-12.629,2.856-12.61-1.214c-1.379,5.01-8.788,5.584-11.223,0.846c0.425,4.069-6.071,3.825-6.061,3.558   C101.998,499.979,103.793,495.876,107.301,497.876L107.301,497.876z M139.23,537.205c-0.043-1.348,2.415-3.011,3.827-1.078   c-0.128-2.059,2.917-3.782,4.438-0.864c-0.445-3.562,7.272-5.162,7.263,1.522c-0.008,6.246-7.299,5.063-7.311,1.295   c-1.441,2.938-4.16,0.941-4.154-0.399c-0.454,1.649-2.895,1.839-3.696,0.277c0.14,1.341-2,1.261-1.997,1.173   C137.484,537.898,138.075,536.547,139.23,537.205L139.23,537.205z"
      />
    </symbol>
    <symbol viewBox="0 0 100 120" id="icon-industrial">
      <path
        fill-rule="evenodd"
        clip-rule="evenodd"
        d="M641.916,388.857v1.451c1.613,0.324,3.205,1.784,3.205,3.876   l0.008,12.675h3.213v-12.623c0-1.798,1.488-3.633,3.205-3.921v-1.9l-9.107-0.007C642.049,388.408,641.916,388.518,641.916,388.857   L641.916,388.857z M698.264,401.352c-0.52,0-1.037,0-1.555,0c-0.035-1.872,1.137-4.997,2.902-6.202   c-0.199-4.934,4.193-6.392,6.41-3.605c0.799,1.079,2.102,0.69,2.852,0.099c1.057-1.345,2.98-1.221,4.373,0.265   c0.877,0.964,1.311,0.842,1.928,0.534c1.363-0.681,2.281-0.601,3.688,0.059c2.539,1.188,2.578,3.888,0.402,5.201   c-1.43,0.863-3.291,1.108-4.734,0.233c-0.537-0.326-0.785-0.9-1.688,0.038c-1.346,1.16-3.635,1.221-4.717-0.269   c-0.705-1.142-1.457-1.227-2.291-0.185c-1.436,1.873-3.613,1.722-5.18,0.242C699.375,397.762,698.518,399.518,698.264,401.352   L698.264,401.352z M669.354,361.457c-1.021,0-2.043,0-3.064,0c-0.066-3.688,2.242-9.85,5.721-12.223   c-0.391-9.727,8.268-12.6,12.635-7.108c1.574,2.128,4.145,1.361,5.623,0.192c2.08-2.648,5.873-2.403,8.617,0.523   c1.729,1.9,2.584,1.66,3.799,1.054c2.688-1.344,4.496-1.184,7.27,0.114c5.004,2.344,5.08,7.663,0.793,10.253   c-2.814,1.7-6.486,2.185-9.33,0.459c-1.059-0.642-1.547-1.774-3.326,0.074c-2.652,2.288-7.166,2.408-9.299-0.526   c-1.391-2.251-2.873-2.418-4.516-0.364c-2.83,3.689-7.121,3.394-10.207,0.477C671.547,354.382,669.855,357.842,669.354,361.457   L669.354,361.457z M677.088,422.222h5.834v5.836h-5.834V422.222L677.088,422.222z M648.371,422.222h5.834v5.836h-5.834V422.222   L648.371,422.222z M658.24,422.222h5.834v5.836h-5.834V422.222L658.24,422.222z M667.887,422.222h5.836v5.836h-5.836V422.222   L667.887,422.222z M687.023,422.222h5.836v5.836h-5.836V422.222L687.023,422.222z M706.754,432.368h-72.279v-25.509h2.541v-12.608   c0-2.026,1.496-3.582,3.213-3.942v-1.9c0-1.062,0.699-1.606,1.695-1.606l22.137,0.152l1.354-24.058h4.943l1.604,23.91l9.6,0.002   c1.143,0,1.695,0.517,1.695,1.577l-0.008,7.325l8.738-0.019l0.01,13.199h4.205l0.42-6.694c0.68,0,1.361,0,2.041,0l0.383,6.694   h3.842l0.422-6.694c0.68,0,1.359,0,2.041,0l0.381,6.694h1.023V432.368L706.754,432.368z M672.551,395.672l-0.521-7.271l9.082-0.001   c0.354,0,0.449,0.17,0.449,0.457v6.854L672.551,395.672L672.551,395.672z M663.988,388.554l-0.74,13.099l-6.793,5.207v-12.586   c0-1.997-1.525-3.655-3.199-3.942v-1.923L663.988,388.554L663.988,388.554z"
      />
    </symbol>
    <symbol viewBox="0 0 100 120" id="icon-mining">
      <path
        fill-rule="evenodd"
        clip-rule="evenodd"
        d="M354.269,554.155v11.454c28.369,0,56.737,0,85.106,0v-11.454h-4.963   c0.888-4.568,0.279-8.163-0.32-11.699c-0.848-5.006-0.85-6.603,0.145-11.539c0.851-4.22,1.838-9.118,0.703-12.696   c3.028-7.048-0.62-23.342-4.821-19.701c-1.09,0.943-3.865,2.946-5.595,5.134c0.35,0.79,0.747,1.724,1.218,2.759   c-28.538,8.144-36.859,10.544-52.764,15.083c-1.404-4.496-1.597-6.591-3.714-6.104c-0.549,0.126-9.454,2.143-9.192,4.042   c1.414,4.383,2.738,8.932,4.107,13.577c-2.818,0-6.979-0.512-7.25,2.968v18.178H354.269L354.269,554.155z M430.514,554.155h-8.124   l-11.215-37.177c5.625-1.608,11.25-3.218,16.874-4.826c1.428,3.216,2.309,5.16,3.278,7.207c0.912,2.891-0.118,7.34-0.818,10.812   c-1.099,5.454-1.109,7.392-0.175,12.911C430.903,546.434,431.48,549.841,430.514,554.155L430.514,554.155z M418.77,554.155h-23.138   l9.691-30.575c1.502,0,3.005,0,4.508,0L418.77,554.155L418.77,554.155z M391.879,554.155h-0.568   c0.067-5.111,0.289-17.84-0.412-19.146c-1.305-2.434-3.656-1.999-6.26-1.999c0-2.813,0-5.628,0-8.441   c6.274-1.795,12.548-3.589,18.822-5.384C402.609,522.191,395.439,543.865,391.879,554.155L391.879,554.155z"
      />
    </symbol>
    <symbol viewBox="0 0 100 120" id="icon-recycle">
      <path
        fill-rule="evenodd"
        clip-rule="evenodd"
        d="M520.512,562.388c0.75-0.008,2.744,0.208,2.734-0.881   c-0.111-12.021-0.225-24.041-0.336-36.063c-1.318,0.013-2.637,0.024-3.955,0.037c0.113,12.02,0.227,24.041,0.338,36.062   C519.297,562.012,519.848,562.394,520.512,562.388L520.512,562.388z M514.084,516.052c-5.146,1.539-3.332-3.436-2.273-5.476   c0.945-1.82-4.467-6.323,3.682-6.438c0.076-0.001,5.883-6.976,6.23-1.663c0.139,2.126,5.545-0.857,4.436,3.606   c0.674,0.982,2.486,0.245,4.037,1.154c2.707,1.586,0.607,2.969,0.148,3.701c-0.342,0.545-0.35,1.334,0.148,2.505   c1.873,4.4-4.658-0.438-4.658,3.871c0,6.961-3.705,0.205-5.225,1.468C517.563,521.312,515.965,516.052,514.084,516.052   L514.084,516.052z M555.084,477.423c4.424,0,8.01,3.587,8.01,8.011c0,4.425-3.586,8.012-8.01,8.012s-8.012-3.587-8.012-8.012   C547.072,481.01,550.66,477.423,555.084,477.423L555.084,477.423z M576.805,520.538h-19.584l-4.273-13.709l-33.291-11.572h44.863   L576.805,520.538L576.805,520.538z M557.398,522.555h19.762l-2.119,43.054h-1.402l-8.051-26.319l-16.896,26.319h-1.047   L557.398,522.555L557.398,522.555z M512.143,562.466c0.75-0.008,2.744,0.208,2.734-0.882c-0.113-12.021-0.227-24.041-0.338-36.062   c-1.318,0.013-2.637,0.024-3.953,0.037c0.111,12.021,0.225,24.042,0.336,36.062C510.928,562.091,511.477,562.472,512.143,562.466   L512.143,562.466z M528.885,562.309c0.75-0.007,2.742,0.208,2.732-0.881c-0.113-12.02-0.225-24.041-0.338-36.062   c-1.318,0.013-2.635,0.024-3.953,0.037c0.113,12.021,0.225,24.041,0.338,36.062C527.668,561.934,528.219,562.315,528.885,562.309   L528.885,562.309z M508.752,565.608c8.369-0.078,16.74-0.156,25.109-0.234c2.354-0.022,4.26-1.965,4.236-4.317   c-0.121-12.954-0.242-25.908-0.363-38.862c-11.221,0.104-22.441,0.209-33.662,0.314c0.121,12.955,0.242,25.909,0.363,38.863   C504.457,563.725,506.4,565.631,508.752,565.608L508.752,565.608z"
      />
    </symbol>
    <symbol viewBox="0 0 100 120" id="icon-oilfield">
      <path
        fill-rule="evenodd"
        clip-rule="evenodd"
        d="M262.263,105.871h-6.731l6.731,5.159V105.871L262.263,105.871z    M266.316,67.554c-0.255,2.017-0.84,3.194-1.943,4.237c-1.47-9.455-6.875-8.667-5.212-18.134   c-6.904,12.198-5.967,21.53,2.874,26.545c-17.679-3.28-13.082-18.756-1.033-32.272c-0.288,6.319,1.227,10.642,3.616,13.933   c1.451-1.164,2.149-3.13,1.943-6.637c4.399,8.419,9.731,20.464-2.158,24.975C268.286,76.814,268.689,72.762,266.316,67.554   L266.316,67.554z M236.242,163.771v7.114h54.244v-7.114H236.242L236.242,163.771z M243.736,160.284h39.253l-11.618-75.086h2.225   v-2.268h-2.267v-1.339h-15.851v1.339h-2.267l0,0v2.268h2.225L243.736,160.284L243.736,160.284z M279.626,153.169h-9.959   l-3.962-2.014l12.544-6.776L279.626,153.169L279.626,153.169z M257.484,153.169h-10.279l1.327-8.513l12.575,6.588L257.484,153.169   L257.484,153.169z M270.706,105.871h-6.161v5.037L270.706,105.871L270.706,105.871z M264.545,103.605h6.256l-6.256-6.835V103.605   L264.545,103.605z M255.722,103.605h6.542v-6.782L255.722,103.605L255.722,103.605z M262.263,124.856h-8.219l8.219,5.083V124.856   L262.263,124.856z M273.034,124.856h-8.489v5.341L273.034,124.856L273.034,124.856z M264.545,122.59h8.724l-8.724-6.774V122.59   L264.545,122.59z M253.599,122.59h8.665v-6.816L253.599,122.59L253.599,122.59z M262.263,143.279H251.05l11.214,6.044   L262.263,143.279L262.263,143.279z M275.68,143.279h-11.135v6.053L275.68,143.279L275.68,143.279z M264.545,141.013h10.434   l-10.434-6.765V141.013L264.545,141.013z M251.506,141.013h10.757v-6.485L251.506,141.013L251.506,141.013z M251.474,125.772   l9.9,6.419l-12.084,7.604L251.474,125.772L251.474,125.772z M254.268,107.833l7.2,5.592l-9.25,7.564L254.268,107.833   L254.268,107.833z M257.235,88.786l4.721,5.156l-6.635,7.133L257.235,88.786L257.235,88.786z M262.263,87.464v4.033l-3.743-4.033   H262.263L262.263,87.464z M267.982,87.464l-3.437,3.694v-3.694H267.982L267.982,87.464z M271.532,101.484l-6.75-7.272l4.827-5.007   L271.532,101.484L271.532,101.484z M274.495,120.403l-9.177-7.031l7.19-5.657L274.495,120.403L274.495,120.403z M277.46,139.34   l-11.442-7.077l9.442-5.691L277.46,139.34L277.46,139.34z"
      />
    </symbol>
    <symbol viewBox="0 0 100 120" id="icon-burner">
      <path
        fill-rule="evenodd"
        clip-rule="evenodd"
        d="M81.747,654.636h27.645v-3.188h-3.116v-3.2h18.361v3.2h-3.116v3.188   h27.645c15.457,0,15.457,37.734,0,37.734H81.747C66.291,692.37,66.291,654.636,81.747,654.636L81.747,654.636z M115.109,624.213   c0.058-0.426,0.045-0.827,0.369-0.836c0.273-0.008,0.285,0.341,0.437,0.937c1.444,5.653,6.221,8.353,7.75,13.652   c2.764,9.577-18.909,9.714-16.47,0.274C108.588,632.845,114.456,629.006,115.109,624.213L115.109,624.213z M138.723,699.76H92.191   c0.691,0.861,1.104,1.953,1.104,3.136c0,2.768-2.268,5.036-5.036,5.036c-2.292,0-4.249-1.564-4.847-3.681   c-0.597,2.116-2.551,3.681-4.849,3.681c-2.76,0-5.036-2.269-5.036-5.036c0-0.278,0.023-0.553,0.068-0.819h-2.313v-8.341h4.211   v2.317h79.923v-2.317h4.211v8.341h-2.313c0.044,0.267,0.068,0.541,0.068,0.819c0,2.768-2.268,5.036-5.036,5.036   c-2.292,0-4.249-1.564-4.847-3.681c-0.597,2.116-2.551,3.681-4.849,3.681c-2.76,0-5.036-2.269-5.036-5.036   C137.615,701.713,138.031,700.621,138.723,699.76L138.723,699.76z M88.26,700.789c1.153,0,2.107,0.946,2.107,2.106   c0,1.153-0.954,2.106-2.107,2.106c-1.159,0-2.106-0.953-2.106-2.106C86.153,701.735,87.101,700.789,88.26,700.789L88.26,700.789z    M78.564,700.789c1.152,0,2.107,0.946,2.107,2.106c0,1.153-0.955,2.106-2.107,2.106c-1.16,0-2.107-0.953-2.107-2.106   C76.457,701.735,77.404,700.789,78.564,700.789L78.564,700.789z M152.348,700.789c1.153,0,2.107,0.946,2.107,2.106   c0,1.153-0.954,2.106-2.107,2.106c-1.16,0-2.107-0.953-2.107-2.106C150.241,701.735,151.188,700.789,152.348,700.789   L152.348,700.789z M142.651,700.789c1.153,0,2.107,0.946,2.107,2.106c0,1.153-0.954,2.106-2.107,2.106   c-1.16,0-2.106-0.953-2.106-2.106C140.545,701.735,141.492,700.789,142.651,700.789L142.651,700.789z"
      />
    </symbol>
    <symbol viewBox="0 0 100 120" id="icon-quarry">
      <path
        fill-rule="evenodd"
        clip-rule="evenodd"
        d="M567.811,425.226c1.154,0,2.107,0.947,2.107,2.106   c0,1.153-0.953,2.107-2.107,2.107c-1.158,0-2.105-0.954-2.105-2.107C565.705,426.173,566.652,425.226,567.811,425.226   L567.811,425.226z M507.486,378.488c-2.492-9.582,7.24-15.531,14.914-12.134c2.43-8.041,16.117-11.603,22.852-3.979   c4.84-4.357,14.592-0.612,14.902,5.509c5.172-2.66,15.027,2.584,14.074,10.604H507.486L507.486,378.488z M577.82,417.445h-74.408   v-35.73h74.408V417.445L577.82,417.445z M537.645,391.157h-27.955v-3.153h27.955V391.157L537.645,391.157z M571.541,391.157   h-27.953v-3.153h27.953V391.157L571.541,391.157z M571.541,411.156h-27.953v-3.152h27.953V411.156L571.541,411.156z    M571.541,404.49h-27.953v-3.153h27.953V404.49L571.541,404.49z M571.541,397.823h-27.953v-3.152h27.953V397.823L571.541,397.823z    M537.645,411.156h-27.955v-3.152h27.955V411.156L537.645,411.156z M537.645,404.49h-27.955v-3.153h27.955V404.49L537.645,404.49z    M537.645,397.823h-27.955v-3.152h27.955V397.823L537.645,397.823z M577.508,425.226c1.152,0,2.105,0.947,2.105,2.106   c0,1.153-0.953,2.107-2.105,2.107c-1.16,0-2.107-0.954-2.107-2.107C575.4,426.173,576.348,425.226,577.508,425.226L577.508,425.226   z M503.725,425.226c1.152,0,2.105,0.947,2.105,2.106c0,1.153-0.953,2.107-2.105,2.107c-1.16,0-2.107-0.954-2.107-2.107   C501.617,426.173,502.564,425.226,503.725,425.226L503.725,425.226z M513.42,425.226c1.152,0,2.107,0.947,2.107,2.106   c0,1.153-0.955,2.107-2.107,2.107c-1.158,0-2.105-0.954-2.105-2.107C511.314,426.173,512.262,425.226,513.42,425.226   L513.42,425.226z M563.883,424.196h-46.531c0.691,0.861,1.105,1.953,1.105,3.136c0,2.769-2.268,5.036-5.037,5.036   c-2.291,0-4.248-1.563-4.848-3.68c-0.596,2.116-2.549,3.68-4.848,3.68c-2.76,0-5.037-2.268-5.037-5.036   c0-0.278,0.023-0.553,0.068-0.819h-2.313v-8.34h4.211v2.316h79.922v-2.316h4.213v8.34h-2.313c0.043,0.267,0.066,0.541,0.066,0.819   c0,2.769-2.268,5.036-5.035,5.036c-2.293,0-4.25-1.563-4.848-3.68c-0.598,2.116-2.551,3.68-4.85,3.68   c-2.76,0-5.035-2.268-5.035-5.036C562.775,426.149,563.191,425.058,563.883,424.196L563.883,424.196z"
      />
    </symbol>
    <symbol viewBox="0 0 100 120" id="icon-solar">
      <path
        fill-rule="evenodd"
        clip-rule="evenodd"
        d="M540.615,672.249c-5.217,0-9.447-4.229-9.447-9.447   c0-5.219,4.23-9.448,9.447-9.448c5.219,0,9.449,4.229,9.449,9.448C550.064,668.02,545.834,672.249,540.615,672.249L540.615,672.249   z M537.182,691.375v13.149c0,4.543,6.867,4.542,6.867,0v-13.149C544.049,686.831,537.182,686.831,537.182,691.375L537.182,691.375z    M544.049,634.228v-13.148c0-4.543-6.867-4.544-6.867,0v13.148C537.182,638.771,544.049,638.771,544.049,634.228L544.049,634.228z    M517.982,680.578l-9.297,9.297c-3.213,3.213,1.645,8.069,4.857,4.856l9.297-9.297   C526.053,682.222,521.195,677.365,517.982,680.578L517.982,680.578z M558.391,640.169l9.299-9.298   c3.213-3.213,8.068,1.645,4.857,4.856l-9.299,9.298C560.035,648.237,555.18,643.382,558.391,640.169L558.391,640.169z    M569.189,666.235h13.148c4.543,0,4.543-6.868,0-6.868h-13.148C564.646,659.367,564.646,666.235,569.189,666.235L569.189,666.235z    M512.043,666.235h-13.149c-4.544,0-4.543-6.868,0-6.868h13.149C516.586,659.367,516.586,666.235,512.043,666.235L512.043,666.235z    M558.594,685.233l9.297,9.297c3.213,3.213,8.068-1.645,4.857-4.856l-9.299-9.298C560.236,677.164,555.381,682.02,558.594,685.233   L558.594,685.233z M518.184,644.823l-9.297-9.298c-3.213-3.212,1.645-8.068,4.857-4.855l9.297,9.298   C526.254,643.181,521.396,648.036,518.184,644.823L518.184,644.823z M540.615,683.547c-11.455,0-20.744-9.289-20.744-20.745   c0-11.457,9.289-20.746,20.744-20.746c11.457,0,20.746,9.289,20.746,20.746C561.361,674.258,552.072,683.547,540.615,683.547   L540.615,683.547z"
      />
    </symbol>
    <symbol viewBox="0 0 100 120" id="icon-fire">
      <path
        fill-rule="evenodd"
        clip-rule="evenodd"
        d="M424.141,418.418l-4.575,1.227l4.575,1.226   c1.97,0.528,3.149,2.571,2.622,4.541l-1.127,4.209c-0.528,1.97-2.572,3.15-4.542,2.621l-24.273-6.503l-24.271,6.503   c-1.97,0.529-4.013-0.651-4.542-2.621l-1.127-4.209c-0.528-1.97,0.652-4.013,2.622-4.541l4.575-1.226l-4.575-1.227   c-1.97-0.527-3.15-2.571-2.622-4.541l1.127-4.208c0.528-1.971,2.572-3.15,4.542-2.623l24.271,6.504l24.273-6.504   c1.97-0.527,4.014,0.652,4.542,2.623l1.127,4.208C427.291,415.847,426.111,417.891,424.141,418.418L424.141,418.418z    M369.149,372.043c1.416,22.029,9.727,35.545,25.295,36.593c22.73,1.529,32.333-21.394,29.597-40.726   c-0.935,3.76-1.537,4.938-3.514,6.299c-2.312-8.131-4.116-11.105-8.322-15.233c7.243-5.478,8.152-13.911,6.665-20.397   c-0.437,8.558-4.176,12.541-9.677,14.507c-1.032-1.828-1.896-4.714-0.978-7.703c-1.533,2.449-2.844,4.833-1.162,8.728   c-1.449,0.746-2.521,1.18-4.854,2.157c2.164-4.65,2.904-12.594-0.621-19.522c4.165,14.09-13.803,23.826-14.982,43.213   c-7.968-17.775,20.798-26.603,0.042-41.093c4.071,4.836,5.325,9.832,0.109,15.363c-0.73-0.529-1.042-1.603-0.823-2.803   c-9.121,10.552-11.171,21.258-10.341,29.87C372.034,379.338,371.025,377.777,369.149,372.043L369.149,372.043z M414.373,378.86   c1.259,8.247-1.208,14.581-5.044,18.835c-7.577,8.399-19.332,7.982-25.462-0.211c-4.957-6.626-7.396-17.391-1.424-30.982   c-1.847,5.467-2.499,21.666,4.009,21.704c6.886,0.04,3.638-17.46,13.369-24.811C389.749,382.257,405.554,397.827,414.373,378.86   L414.373,378.86z M408.423,361.67c5.086,15.57-1.061,21.896-4.608,20.022C400.009,379.686,397.897,369.333,408.423,361.67   L408.423,361.67z"
      />
    </symbol>
    <symbol viewBox="0 0 100 120" id="icon-adaptive">
      <g>
        <path
          fill="none"
          d="M253.574,774.284l28.864,28.864l1.148-0.134c2.982,0,5.466-2.483,5.466-5.467l-0.002-26.38    c0.001-2.982-1.138-3.508-4.12-3.508l-25.698-0.049c-2.982,0-5.529,2.547-5.529,5.529L253.574,774.284z"
        />
        <g>
          <path d="M250.389,772.506" />
        </g>
        <g>
          <path
            d="M258.867,777.438l15.264-0.28c3.133,0.001,4.185,0.697,4.186,3.83l-0.143,15.757l10.198,10.198l0.261-35.047     c0-4.178-1.771-4.737-5.95-4.737l-33.995,0.101L258.867,777.438z"
          />
          <path
            d="M252.751,815.149l-1.998-1.997l-2.376-2.376l-6.104-6.104l19.962-19.963c1.085-1.085,1.069-2.858-0.174-4.102     c-1.243-1.243-3.017-1.259-4.102-0.175l-22.256,22.257c-0.011,0.011-0.02,0.022-0.03,0.033c-0.012,0.013-0.111,0.108-0.123,0.12     c-1.258,1.258-1.494,3.233-0.422,4.306l2.185,2.185l2.188,2.188l8.316,8.315l0.122,0.122c1.072,1.072,3.089,0.794,4.347-0.464     S253.823,816.222,252.751,815.149z"
          />
          <path
            d="M280.222,791.311l-19.978,19.978c-1.033,1.033-0.729,3.015,0.667,4.411c1.396,1.396,3.377,1.699,4.411,0.666     l19.977-19.977L280.222,791.311z"
          />
        </g>
        <g>
          <path
            d="M264.831,859.833l-15.275,0.292c-3.134,0-4.18-0.703-4.18-3.836l0.148-15.764l-10.198-10.198l-0.272,35.06     c0,4.178,1.778,4.731,5.956,4.731l34-0.106L264.831,859.833z"
          />
          <path
            d="M270.947,822.122l1.997,1.997l2.375,2.376l5.97,5.97l-19.986,19.987c-1.084,1.084-1.069,2.857,0.174,4.102     c1.243,1.242,3.017,1.259,4.101,0.174l22.257-22.256c0.011-0.012,0.086,0.044,0.097,0.033c0.013-0.013,0.157-0.087,0.168-0.099     c1.258-1.258,1.54-3.212,0.468-4.283l-2.185-2.186l-2.188-2.188l-8.315-8.315l-0.122-0.122c-1.073-1.072-3.09-0.794-4.347,0.464     C270.153,819.032,269.875,821.05,270.947,822.122z"
          />
          <path
            d="M243.343,845.828l19.954-19.954c1.033-1.034,0.729-3.015-0.667-4.411c-1.396-1.396-3.377-1.7-4.411-0.667l-19.954,19.954     L243.343,845.828z"
          />
        </g>
      </g>
    </symbol>
    <symbol viewBox="0 0 100 120" id="icon-customize">
      <path
        d="M156.525,855.924l-28.455-27.76c2.16-5.304,1.061-11.577-3.323-15.854c-4.661-4.549-11.632-5.479-17.249-2.829    l-0.098-0.057l6.72,6.556l-0.089,6.642l-6.923,0.198l-6.641-6.479c-2.64,5.404-1.746,12.263,2.917,16.811    c4.384,4.277,10.924,5.242,16.215,3.277l28.455,27.76c1.309,1.277,3.938,0.924,5.693-0.788l2.119-2.066    C157.618,859.623,157.833,857.2,156.525,855.924z M151.74,860.279c-0.775,0-1.403-0.612-1.403-1.369    c0-0.756,0.628-1.368,1.403-1.368c0.775,0,1.403,0.612,1.403,1.368C153.143,859.667,152.515,860.279,151.74,860.279z"
      />
      <path
        d="M118.84,842.562c-0.653-0.665-0.979-1.528-0.98-2.391c-1.442,0.354-2.948,0.547-4.5,0.547    c-10.35,0-18.741-8.39-18.741-18.74c0-10.352,8.391-18.742,18.741-18.742c10.351,0,18.742,8.391,18.742,18.742    c0,1.68-0.225,3.307-0.639,4.855c0.845,0.028,1.681,0.366,2.321,1.015l10.03,10.188c1.34-2.447,2.075-4.804,2.783-7.595    L157,827.514v-12.535l-10.404-2.432c-0.826-3.256-1.826-5.484-3.509-8.292l5.583-9.645l-8.826-8.864l-9.274,5.855    c-2.726-1.632-4.953-2.14-8.102-2.967L119.552,778h-12.537l-2.431,10.635c-3.036,0.798-5.048,1.684-7.693,3.232l-0.143-0.084    l-9.644-5.517l-8.864,8.858l5.819,9.417c-1.49,2.569-2.737,5.356-3.521,8.293L70,815.698v12.538l10.554,2.384    c0.766,2.848,1.91,5.548,3.339,8.05l-5.401,9.478l8.87,8.863l9.063-5.708c2.609,1.524,5.438,2.528,8.428,3.324L107.737,865h12.537    l2.406-10.415c2.084-0.565,4.088-1.219,5.995-2.156L118.84,842.562z"
      />
    </symbol>
</svg>
