<?xml version="1.0" encoding="utf-8"?>
<!-- Generator: Adobe Illustrator 16.0.0, SVG Export Plug-In . SVG Version: 6.00 Build 0)  -->
<!DOCTYPE svg PUBLIC "-//W3C//DTD SVG 1.1//EN" "http://www.w3.org/Graphics/SVG/1.1/DTD/svg11.dtd">
<svg version="1.1" id="Layer_1" xmlns="http://www.w3.org/2000/svg" xmlns:xlink="http://www.w3.org/1999/xlink" x="0px" y="0px"
	 width="500px" height="500px" viewBox="0 0 500 500" enable-background="new 0 0 500 500" xml:space="preserve">
<path fill-rule="evenodd" clip-rule="evenodd" fill="#222A4C" d="M196.341,407.311c-65.581,0-118.755-53.854-118.755-120.297
	c0-66.435,53.174-120.3,118.755-120.3c65.589,0,118.76,53.865,118.76,120.3C315.101,353.456,261.93,407.311,196.341,407.311
	L196.341,407.311z M236.923,68.287h78.571C312.694,29.853,241.301,28.453,236.923,68.287L236.923,68.287z M396.335,192.782v176.621
	C460.385,346.523,473.856,242.566,396.335,192.782L396.335,192.782z M396.335,68.287v58.928
	c174.517,119.195,96.904,273.682,0,306.152V500H0.42c0-143.899,0-287.82,0-431.713h22.413V49.764H0.608V13.25h107.71v36.513H84.285
	v18.523h103.979c13.216-90.91,162.758-90.788,175.534,0H396.335L396.335,68.287z M157.079,218.357
	c-24.253,14.189-38.996,40.325-39.016,68.781c17.775,0,35.555,0,53.333,0c1.017-8.721,4.205-15.805,12.057-21.996L157.079,218.357
	L157.079,218.357z M234.569,217.565c25.032,13.958,40.385,40.545,40.416,69.574h-54.261c1.163-8.005-4.319-19.192-12.98-21.996
	L234.569,217.565L234.569,217.565z M134.186,350.341c-34.226-34.682-34.226-91.611,0-126.288c34.235-34.682,90.43-34.682,124.664,0
	c34.227,34.676,34.227,91.606,0,126.288C224.616,385.01,168.421,385.01,134.186,350.341L134.186,350.341z M196.523,303.3
	c8.777,0,15.895-7.208,15.895-16.108c0-8.892-7.118-16.103-15.895-16.103c-8.78,0-15.903,7.211-15.903,16.103
	C180.62,296.092,187.744,303.3,196.523,303.3L196.523,303.3z M124.335,360.319c39.646,40.159,104.726,40.159,144.375,0
	c39.646-40.161,39.646-106.087,0-146.248c-39.649-40.16-104.729-40.16-144.375,0C84.692,254.232,84.692,320.158,124.335,360.319
	L124.335,360.319z M235.688,356.184c-24.141,13.988-54.245,13.981-78.372-0.029c8.708-15.988,17.426-31.965,26.137-47.952
	c5.082,5.004,19.309,5.153,24.29,0L235.688,356.184L235.688,356.184z"/>
</svg>
