<?xml version="1.0" encoding="utf-8"?>
<!-- Generator: Adobe Illustrator 16.0.0, SVG Export Plug-In . SVG Version: 6.00 Build 0)  -->
<!DOCTYPE svg PUBLIC "-//W3C//DTD SVG 1.1//EN" "http://www.w3.org/Graphics/SVG/1.1/DTD/svg11.dtd">
<svg version="1.1" id="Layer_1" xmlns="http://www.w3.org/2000/svg" xmlns:xlink="http://www.w3.org/1999/xlink" x="0px" y="0px"
	 width="500px" height="500px" viewBox="0 0 500 500" enable-background="new 0 0 500 500" xml:space="preserve">
<path fill-rule="evenodd" clip-rule="evenodd" fill="#222A4C" d="M242.108,122.029H184.64l57.468,30.45V122.029L242.108,122.029z
	 M90.454,458.667v41.768c99.781,0,218.643,0,318.429,0v-41.768H90.454L90.454,458.667z M134.455,438.197h230.428l-33.846-218.739
	l69.356-0.021v49.817h14.441l-0.005-55.938l-84.507-66.384l-0.064-36.896l70.135-0.017v49.818h14.441L414.83,103.9l-84.507-66.395
	l-0.071-37.809L168.604-0.044l0.026,37.858L84.508,103.9l-0.006,55.938h14.441v-49.818l69.661,0.017l0.026,37.192l-84.123,66.087
	l-0.006,55.938h14.441v-49.817l69.632,0.021L134.455,438.197L134.455,438.197z M305.279,218.69l-48.271,0.103v-38.085
	L305.279,218.69L305.279,218.69z M242.108,218.825l-48.586,0.108l48.586-38.226V218.825L242.108,218.825z M345.131,396.431h-57.694
	l-24.027-11.824l73.64-39.771L345.131,396.431L345.131,396.431z M212.609,396.431h-57.792l7.785-51.244l75.094,39.437
	L212.609,396.431L212.609,396.431z M243.21,230.229h-48.244l48.244,29.84V230.229L243.21,230.229z M306.436,230.229h-49.833v31.348
	L306.436,230.229L306.436,230.229z M243.21,338.368h-65.065l65.065,34.598V338.368L243.21,338.368z M321.965,338.368h-65.362v35.154
	L321.965,338.368L321.965,338.368z M256.603,325.073h61.252l-61.252-39.718V325.073L256.603,325.073z M180.066,325.073h63.145
	v-38.074L180.066,325.073L180.066,325.073z M179.871,235.603l58.116,37.686l-70.935,44.632L179.871,235.603L179.871,235.603z
	 M332.42,315.244l-67.167-41.54l55.43-33.414L332.42,315.244L332.42,315.244z M242.108,12.614H184.64l57.468,30.45V12.614
	L242.108,12.614z M193.755,109.334l48.353-38.041v37.966L193.755,109.334L193.755,109.334z M257.009,109.231V71.293l48.13,37.868
	L257.009,109.231L257.009,109.231z M383.125,96.386l-52.5-0.006V55.148L383.125,96.386L383.125,96.386z M182.401,101.494
	l54.976-44.957l-55.095-30.699L182.401,101.494L182.401,101.494z M116.207,96.386l52.45-0.006l-0.021-41.183L116.207,96.386
	L116.207,96.386z M257.009,12.614h57.462l-57.462,30.45V12.614L257.009,12.614z M316.828,25.838l-55.09,30.699l55.058,45.027
	L316.828,25.838L316.828,25.838z M383.125,205.801h-52.5v-41.237L383.125,205.801L383.125,205.801z M182.401,210.91l54.976-44.956
	l-55.095-30.7L182.401,210.91L182.401,210.91z M116.207,205.801l52.45-0.006l-0.021-41.183L116.207,205.801L116.207,205.801z
	 M257.009,122.029h57.462l-57.462,30.45V122.029L257.009,122.029z M316.828,135.254l-55.09,30.7l55.058,45.026L316.828,135.254
	L316.828,135.254z"/>
</svg>
