<?xml version="1.0" encoding="utf-8"?>
<!-- Generator: Adobe Illustrator 16.0.0, SVG Export Plug-In . SVG Version: 6.00 Build 0)  -->
<!DOCTYPE svg PUBLIC "-//W3C//DTD SVG 1.1//EN" "http://www.w3.org/Graphics/SVG/1.1/DTD/svg11.dtd">
<svg version="1.1" id="Layer_1" xmlns="http://www.w3.org/2000/svg" xmlns:xlink="http://www.w3.org/1999/xlink" x="0px" y="0px"
	 width="500px" height="500px" viewBox="0 0 500 500" enable-background="new 0 0 500 500" xml:space="preserve">
<path fill="#222A4C" d="M28.244,458.887h445.054c34.715,0,34.707,41.791,0,41.791H28.244
	C-6.471,500.678-6.479,458.887,28.244,458.887L28.244,458.887z M226.041,445.146C-81.543,374.724-27.742,268.046,106.686,171.069
	c62.423-45.036,148.848-73.774,107.953-170.247c85.384,108.635-0.065,148.211-59.125,190.689
	C41.645,273.393,82.345,387.043,226.041,445.146L226.041,445.146z M278.244,444.655c124.72-47.497,113.017-100.778,94.958-129.796
	c-32.645-52.445-170.255-53.35-114.382-187.083c-4.648,118.345,166.976,116.363,203.104,168.615
	C487.59,333.495,474.514,411.591,278.244,444.655L278.244,444.655z M254.544,424.002c-111.345-57.519-179.722-131.15-44.897-242.029
	C139.236,335.385,435.912,275.442,254.544,424.002L254.544,424.002z"/>
</svg>
