<?xml version="1.0" encoding="utf-8"?>
<!-- Generator: Adobe Illustrator 16.0.0, SVG Export Plug-In . SVG Version: 6.00 Build 0)  -->
<!DOCTYPE svg PUBLIC "-//W3C//DTD SVG 1.1//EN" "http://www.w3.org/Graphics/SVG/1.1/DTD/svg11.dtd">
<svg version="1.1" id="Layer_1" xmlns="http://www.w3.org/2000/svg" xmlns:xlink="http://www.w3.org/1999/xlink" x="0px" y="0px"
	 width="500px" height="500px" viewBox="0 0 500 500" enable-background="new 0 0 500 500" xml:space="preserve">
<path fill-rule="evenodd" clip-rule="evenodd" fill="#22333b" d="M43.599,266.249v7.811c9.353,1.746,18.573,9.604,18.573,20.864
	l0.04,68.226h18.612v-67.947c0-9.678,8.628-19.555,18.572-21.105v-10.229l-52.765-0.036
	C44.368,263.831,43.599,264.421,43.599,266.249L43.599,266.249z M370.023,333.501c-3.003,0-6.001,0-8.999,0
	c-0.205-10.075,6.586-26.897,16.806-33.383c-1.146-26.558,24.299-34.405,37.135-19.408c4.627,5.809,12.182,3.716,16.526,0.53
	c6.115-7.238,17.265-6.57,25.328,1.425c5.079,5.188,7.6,4.531,11.165,2.875c7.904-3.663,13.216-3.232,21.366,0.315
	c14.705,6.397,14.932,20.927,2.327,27.997c-8.277,4.646-19.058,5.967-27.42,1.256c-3.111-1.756-4.548-4.847-9.774,0.205
	c-7.798,6.244-21.056,6.571-27.328-1.445c-4.09-6.146-8.441-6.602-13.269-0.994c-8.317,10.083-20.934,9.268-30.01,1.305
	C376.467,314.179,371.501,323.63,370.023,333.501L370.023,333.501z M202.545,118.76c-5.911,0-11.829,0-17.748,0
	c-0.389-19.854,12.99-53.018,33.135-65.792c-2.263-52.355,47.896-67.82,73.195-38.262c9.125,11.455,24.009,7.328,32.574,1.036
	c12.05-14.256,34.029-12.937,49.919,2.817c10.016,10.229,14.976,8.936,22.008,5.673c15.575-7.233,26.052-6.372,42.116,0.615
	c28.989,12.615,29.432,41.248,4.592,55.189c-16.305,9.15-37.573,11.758-54.047,2.47c-6.13-3.454-8.965-9.55-19.273,0.4
	c-15.364,12.316-41.507,12.962-53.864-2.833c-8.055-12.117-16.641-13.016-26.157-1.96c-16.395,19.859-41.254,18.266-59.135,2.564
	C215.253,80.676,205.454,99.301,202.545,118.76L202.545,118.76z M247.358,445.841h33.795v31.412h-33.795V445.841L247.358,445.841z
	 M80.994,445.841h33.801v31.412H80.994V445.841L80.994,445.841z M138.167,445.841h33.802v31.412h-33.802V445.841L138.167,445.841z
	 M194.054,445.841h33.81v31.412h-33.81V445.841L194.054,445.841z M304.914,445.841h33.804v31.412h-33.804V445.841L304.914,445.841z
	 M419.215,500.455H0.497V363.149H15.21V295.28c0-10.906,8.667-19.28,18.614-21.221v-10.229c0-5.713,4.056-8.646,9.82-8.646
	l128.245,0.82l7.835-129.496h28.636l9.296,128.701l55.61,0.011c6.619,0,9.822,2.78,9.822,8.489l-0.046,39.43l50.622-0.101
	l0.056,71.049h24.359l2.433-36.035c3.938,0,7.887,0,11.825,0l2.217,36.035h22.255l2.441-36.035c3.943,0,7.879,0,11.827,0
	l2.207,36.035h5.93V500.455L419.215,500.455z M221.074,302.929l-3.028-39.134l52.618-0.006c2.048,0,2.603,0.915,2.603,2.46v36.891
	L221.074,302.929L221.074,302.929z M171.465,264.614l-4.282,70.507l-39.358,28.028v-67.747c0-10.75-8.831-19.676-18.527-21.221
	v-10.351L171.465,264.614L171.465,264.614z"/>
</svg>
