<?xml version="1.0" encoding="utf-8"?>
<!-- Generator: Adobe Illustrator 16.0.0, SVG Export Plug-In . SVG Version: 6.00 Build 0)  -->
<!DOCTYPE svg PUBLIC "-//W3C//DTD SVG 1.1//EN" "http://www.w3.org/Graphics/SVG/1.1/DTD/svg11.dtd">
<svg version="1.1" id="Layer_1" xmlns="http://www.w3.org/2000/svg" xmlns:xlink="http://www.w3.org/1999/xlink" x="0px" y="0px"
	 width="500px" height="500px" viewBox="0 0 500 500" enable-background="new 0 0 500 500" xml:space="preserve">
<path fill-rule="evenodd" clip-rule="evenodd" fill="#22333b" d="M0,415.498V500c166.513,0,333.023,0,499.54,0v-84.502h-29.129
	c5.211-33.704,1.637-60.224-1.88-86.312c-4.977-36.935-4.989-48.711,0.845-85.129c4.995-31.134,10.791-67.272,4.131-93.671
	c17.771-51.992-3.642-172.204-28.3-145.343c-6.398,6.959-22.689,21.736-32.84,37.874c2.053,5.829,4.385,12.717,7.146,20.351
	c-167.506,60.081-216.349,77.792-309.699,111.278c-8.241-33.172-9.376-48.625-21.801-45.035
	c-3.223,0.928-55.487,15.805-53.955,29.82c8.298,32.333,16.07,65.889,24.107,100.161c-16.543,0-40.961-3.772-42.558,21.899v134.106
	H0L0,415.498z M447.527,415.498h-47.685l-65.826-274.274c33.017-11.868,66.034-23.742,99.043-35.607
	c8.383,23.726,13.553,38.07,19.242,53.17c5.352,21.328-0.694,54.15-4.805,79.765c-6.448,40.235-6.508,54.53-1.024,95.25
	C449.81,358.528,453.194,383.664,447.527,415.498L447.527,415.498z M378.594,415.498H242.783l56.881-225.573
	c8.816,0,17.64,0,26.46,0L378.594,415.498L378.594,415.498z M220.754,415.498h-3.333c0.393-37.711,1.692-131.615-2.42-141.255
	c-7.659-17.955-21.458-14.751-36.745-14.751c0-20.756,0-41.517,0-62.276c36.824-13.241,73.654-26.475,110.477-39.719
	C283.736,179.682,241.649,339.579,220.754,415.498L220.754,415.498z"/>
</svg>
