<?xml version="1.0" encoding="utf-8"?>
<!-- Generator: Adobe Illustrator 16.0.0, SVG Export Plug-In . SVG Version: 6.00 Build 0)  -->
<!DOCTYPE svg PUBLIC "-//W3C//DTD SVG 1.1//EN" "http://www.w3.org/Graphics/SVG/1.1/DTD/svg11.dtd">
<svg version="1.1" id="Layer_1" xmlns="http://www.w3.org/2000/svg" xmlns:xlink="http://www.w3.org/1999/xlink" x="0px" y="0px"
	 width="500px" height="500px" viewBox="0 0 500 500" enable-background="new 0 0 500 500" xml:space="preserve">
<path fill-rule="evenodd" clip-rule="evenodd" fill="#22333b" d="M319.489,233.172c-0.424-12.493,23.537-27.91,37.297-9.988
	c-1.256-19.077,28.424-35.066,43.239-8.015c-4.331-33.012,70.868-47.838,70.78,14.106c-0.085,57.892-71.134,46.945-71.255,12.002
	c-14.039,27.239-40.533,8.729-40.469-3.701c-4.434,15.286-28.212,17.04-36.032,2.58c1.366,12.412-19.491,11.675-19.452,10.855
	C302.469,239.6,308.233,227.064,319.489,233.172L319.489,233.172z M414.161,500.451h-52.17c0-93.048-58.79-125.779-87.191-239.312
	h71.166C349.517,407.215,414.161,420.675,414.161,500.451L414.161,500.451z M353.998,500.451c-49.573,0-303.101,0-352.671,0
	c0-119.311,106.224-150.848,101.981-357.919c49.57,0,99.139,0,148.714,0C257.336,361.007,353.998,381.141,353.998,500.451
	L353.998,500.451z M456.422,500.451h-33.119c0-59.053-37.303-79.833-55.329-151.889h45.171
	C415.39,441.283,456.422,449.82,456.422,500.451L456.422,500.451z M138.013,322.691l26.206,43.645
	c-7.8,5.783-10.966,12.379-11.979,20.519c-17.662,0-35.327,0-52.987,0C99.271,360.304,113.918,335.93,138.013,322.691
	L138.013,322.691z M215.011,321.963l-26.657,44.373c8.604,2.613,14.054,13.05,12.896,20.519h53.909
	C255.137,359.771,239.875,334.973,215.011,321.963L215.011,321.963z M177.201,401.928c-8.722,0-15.797-6.73-15.797-15.024
	s7.075-15.031,15.797-15.031c8.725,0,15.802,6.737,15.802,15.031S185.926,401.928,177.201,401.928L177.201,401.928z
	 M216.122,451.255l-27.768-44.76c-4.95,4.805-19.085,4.674-24.136,0c-8.656,14.917-17.315,29.817-25.972,44.733
	C162.227,464.297,192.134,464.305,216.122,451.255L216.122,451.255z M198.509,92.664c-0.832-24.635,46.409-55.03,73.555-19.701
	c-2.474-37.617,56.051-69.142,85.265-15.797C348.785-7.932,497.08-37.177,496.916,84.981
	c-0.154,114.166-140.284,92.567-140.509,23.664c-27.693,53.716-79.946,17.198-79.829-7.308c-8.729,30.163-55.63,33.622-71.046,5.089
	c2.691,24.501-38.433,23.031-38.37,21.423C164.938,105.331,176.302,80.624,198.509,92.664L198.509,92.664z M400.645,329.446
	c-0.274-8.113,15.28-18.127,24.216-6.493c-0.809-12.396,18.468-22.768,28.091-5.198c-2.814-21.442,46.041-31.08,45.99,9.162
	c-0.054,37.602-46.213,30.479-46.29,7.793c-9.117,17.693-26.335,5.674-26.302-2.398c-2.865,9.923-18.318,11.068-23.398,1.67
	c0.888,8.064-12.655,7.589-12.628,7.058C389.584,333.622,393.327,325.482,400.645,329.446L400.645,329.446z"/>
</svg>
