<?xml version="1.0" encoding="utf-8"?>
<!-- Generator: Adobe Illustrator 16.0.0, SVG Export Plug-In . SVG Version: 6.00 Build 0)  -->
<!DOCTYPE svg PUBLIC "-//W3C//DTD SVG 1.1//EN" "http://www.w3.org/Graphics/SVG/1.1/DTD/svg11.dtd">
<svg version="1.1" id="Layer_1" xmlns="http://www.w3.org/2000/svg" xmlns:xlink="http://www.w3.org/1999/xlink" x="0px" y="0px"
	 width="500px" height="500px" viewBox="0 0 500 500" enable-background="new 0 0 500 500" xml:space="preserve">
<path fill-rule="evenodd" clip-rule="evenodd" fill="#222A4C" d="M404.138,451.286c6.513,0,11.899,6.378,11.899,14.185
	c0,7.765-5.387,14.189-11.899,14.189c-6.544,0-11.894-6.425-11.894-14.189C392.244,457.664,397.594,451.286,404.138,451.286
	L404.138,451.286z M63.545,136.576c-14.071-64.52,40.874-104.58,84.207-81.703c13.712-54.144,90.998-78.127,129.015-26.789
	c27.33-29.341,82.392-4.123,84.138,37.093c29.207-17.912,84.846,17.399,79.471,71.398H63.545L63.545,136.576z M460.648,398.896
	H40.542V158.303h420.106V398.896L460.648,398.896z M233.814,221.884H75.984v-21.232h157.83V221.884L233.814,221.884z
	 M425.201,221.884H267.37v-21.232h157.831V221.884L425.201,221.884z M425.201,356.548H267.37v-21.226h157.831V356.548
	L425.201,356.548z M425.201,311.662H267.37v-21.233h157.831V311.662L425.201,311.662z M425.201,266.771H267.37v-21.227h157.831
	V266.771L425.201,266.771z M233.814,356.548H75.984v-21.226h157.83V356.548L233.814,356.548z M233.814,311.662H75.984v-21.233
	h157.83V311.662L233.814,311.662z M233.814,266.771H75.984v-21.227h157.83V266.771L233.814,266.771z M458.891,451.286
	c6.506,0,11.886,6.378,11.886,14.185c0,7.765-5.38,14.189-11.886,14.189c-6.551,0-11.9-6.425-11.9-14.189
	C446.99,457.664,452.34,451.286,458.891,451.286L458.891,451.286z M42.301,451.286c6.512,0,11.893,6.378,11.893,14.185
	c0,7.765-5.381,14.189-11.893,14.189c-6.545,0-11.899-6.425-11.899-14.189C30.402,457.664,35.756,451.286,42.301,451.286
	L42.301,451.286z M97.046,451.286c6.506,0,11.898,6.378,11.898,14.185c0,7.765-5.392,14.189-11.898,14.189
	c-6.544,0-11.893-6.425-11.893-14.189C85.153,457.664,90.502,451.286,97.046,451.286L97.046,451.286z M381.962,444.355H119.239
	c3.904,5.801,6.242,13.151,6.242,21.115c0,18.643-12.803,33.911-28.435,33.911c-12.94,0-23.989-10.528-27.37-24.777
	c-3.369,14.249-14.396,24.777-27.375,24.777c-15.582,0-28.435-15.269-28.435-33.911c0-1.876,0.133-3.723,0.386-5.519H1.19v-56.155
	h23.775v15.598h451.248v-15.598H500v56.155h-13.062c0.247,1.796,0.38,3.643,0.38,5.519c0,18.643-12.803,33.911-28.428,33.911
	c-12.947,0-23.997-10.528-27.371-24.777c-3.375,14.249-14.401,24.777-27.382,24.777c-15.58,0-28.428-15.269-28.428-33.911
	C375.71,457.507,378.054,450.156,381.962,444.355L381.962,444.355z"/>
</svg>
